<svg xmlns="http://www.w3.org/2000/svg" width="32" height="29" viewBox="0 0 32 29">
  <defs>
    <style>
      .cls-1 {
        fill: #222;
        fill-rule: evenodd;
      }
    </style>
  </defs>
  <path id="Forma_1" data-name="Forma 1" class="cls-1" d="M1182.18,42.364h3.4l4.83,17.455a1.183,1.183,0,0,0,1.14.867h14.86a1.175,1.175,0,0,0,1.08-.709l5.41-12.412a1.186,1.186,0,0,0-1.09-1.655H1195.4a1.182,1.182,0,0,0,0,2.364H1210l-4.38,10.048h-13.18l-4.83-17.455a1.186,1.186,0,0,0-1.15-.867h-4.28A1.182,1.182,0,0,0,1182.18,42.364ZM1190.43,69a2.679,2.679,0,1,0-2.68-2.679A2.681,2.681,0,0,0,1190.43,69Zm16.77,0h0.19a2.686,2.686,0,0,0-.37-5.359A2.683,2.683,0,0,0,1207.2,69Z" transform="translate(-1181 -40)"/>
</svg>
