<svg xmlns="http://www.w3.org/2000/svg" viewBox="0 0 26 24" width="26" height="24">
	<style>
		tspan { white-space:pre }
		.shp0 { fill: #ef5b70 } 
	</style>
	<g id="Product Description">
		<g id="Add to cart">
			<path id="Forma 1 copy" class="shp0" d="M0.96 1.96L3.72 1.96L7.65 16.4C7.76 16.83 8.14 17.12 8.57 17.12L20.64 17.12C21.03 17.12 21.37 16.89 21.53 16.53L25.92 6.26C26.05 5.95 26.01 5.61 25.84 5.33C25.66 5.05 25.36 4.89 25.04 4.89L11.7 4.89C11.17 4.89 10.74 5.33 10.74 5.87C10.74 6.41 11.17 6.85 11.7 6.85L23.56 6.85L20 15.16L9.3 15.16L5.37 0.72C5.26 0.29 4.87 0 4.44 0L0.96 0C0.43 0 0 0.44 0 0.98C0 1.52 0.43 1.96 0.96 1.96ZM7.66 24C8.86 24 9.84 23 9.84 21.78C9.84 20.56 8.86 19.56 7.66 19.56C6.46 19.56 5.48 20.56 5.48 21.78C5.48 23 6.46 24 7.66 24ZM21.29 24C21.33 24 21.4 24 21.45 24C22.02 23.95 22.55 23.69 22.94 23.23C23.32 22.79 23.5 22.22 23.47 21.62C23.39 20.41 22.34 19.48 21.14 19.56C19.94 19.65 19.04 20.72 19.12 21.93C19.2 23.09 20.15 24 21.29 24Z" />
		</g>
	</g>
</svg>